<svg xmlns="http://www.w3.org/2000/svg" xmlns:xlink="http://www.w3.org/1999/xlink" viewBox="0 0 920 250"><defs><style>.cls-1,.cls-6{fill:none;}.cls-2{fill:#fff;}.cls-3{fill:#10162f;}.cls-4{fill:#ffc35b;}.cls-5{fill:url(#New_Pattern_Swatch_8);}.cls-6{stroke:#fff;stroke-miterlimit:10;}.cls-7{fill:url(#diagonal);}</style><pattern id="New_Pattern_Swatch_8" data-name="New Pattern Swatch 8" width="5.36" height="5.36" patternUnits="userSpaceOnUse" viewBox="0 0 5.36 5.36"><rect class="cls-1" width="5.36" height="5.36"/><rect class="cls-2" width="5.36" height="5.36"/><circle class="cls-3" cx="2.68" cy="2.68" r="0.99"/></pattern><pattern id="diagonal" data-name="diagonal" width="24.85" height="24.85" patternTransform="translate(-4 -6)" patternUnits="userSpaceOnUse" viewBox="0 0 24.85 24.85"><rect class="cls-1" width="24.85" height="24.85"/><rect class="cls-4" width="24.85" height="24.85"/><circle class="cls-3" cx="12.43" cy="12.43" r="2.3"/></pattern></defs><g id="Layer_1" data-name="Layer 1"><rect class="cls-5" x="1" y="1" width="139" height="249"/></g><g id="Layer_2" data-name="Layer 2"><rect class="cls-3" x="140" width="780" height="151"/><polyline class="cls-6" points="205.09 27.91 216.26 19.32 228.32 27.56"/><path class="cls-6" d="M154.5-2.5s40,67,63,87c6,5.25,20.1,18.91,40,0s51-57,51-57,28-34,50-4c20,27.29,45.3,82.37,61,102,12,15,41.72,19.1,57,0,20-25,106-206,106-206s32-73,84,6,54,98,89,150c6.51,9.68,29,36,52,10,24.44-27.63,34.6-50,47-66,7.5-9.69,27-29,49-1,7.86,10,29.09,41.78,29.09,41.78"/><polyline class="cls-6" points="342.27 115.28 353.44 106.7 365.5 114.94"/><polyline class="cls-6" points="881.27 106.28 892.44 97.7 904.5 105.94"/><polyline class="cls-6" points="659.27 51.28 670.44 42.7 682.5 50.94"/></g><g id="Layer_3" data-name="Layer 3"><rect class="cls-7" x="140" y="151" width="780" height="100"/></g></svg>