<svg xmlns="http://www.w3.org/2000/svg" xmlns:xlink="http://www.w3.org/1999/xlink" viewBox="0 0 920 250"><defs><style>.cls-1,.cls-6{fill:none;}.cls-2{fill:#81eac0;}.cls-3{fill:#10162f;}.cls-4{fill:#fff;}.cls-5{fill:url(#New_Pattern_Swatch_8);}.cls-6{stroke:#fff;stroke-miterlimit:10;}.cls-7{fill:url(#New_Pattern_Swatch_17);}</style><pattern id="New_Pattern_Swatch_8" data-name="New Pattern Swatch 8" width="5.36" height="5.36" patternTransform="translate(0 -2.6)" patternUnits="userSpaceOnUse" viewBox="0 0 5.36 5.36"><rect class="cls-1" width="5.36" height="5.36"/><rect class="cls-4" width="5.36" height="5.36"/><circle class="cls-3" cx="2.68" cy="2.68" r="0.99"/></pattern><pattern id="New_Pattern_Swatch_17" data-name="New Pattern Swatch 17" width="24.85" height="24.85" patternTransform="translate(5 34.73)" patternUnits="userSpaceOnUse" viewBox="0 0 24.85 24.85"><rect class="cls-1" width="24.85" height="24.85"/><rect class="cls-2" width="24.85" height="24.85"/><circle class="cls-3" cx="12.43" cy="12.43" r="2.3"/></pattern></defs><g id="Layer_1" data-name="Layer 1"><rect class="cls-5" x="781" y="-1" width="139" height="251"/></g><g id="Layer_2" data-name="Layer 2"><rect class="cls-3" y="-1" width="781" height="153"/><path class="cls-6" d="M0,35.46S35.14,82.52,48.78,96.52c7.67,7.87,23.72,20,44,0,27.6-27.25,98.77-102,98.77-102h73.4S309,81.11,326.81,108.08c7.15,10.8,25.69,32.42,51.69,3.42s31.26-42.39,41-57c8-12,22-28,38-3s26.76,46.08,47,68c12,13,34,14,48,2,21-18,50.25-77.5,64-105,6-12,26-43,48,0,22.66,44.28,33.86,70,50,90,8,9.94,33.71,37.06,53,4,14-24,13.69-24.18,14-25"/><circle class="cls-6" cx="92.5" cy="38.5" r="5"/><circle class="cls-6" cx="202.5" cy="119.5" r="5"/><circle class="cls-6" cx="343.5" cy="36.5" r="5"/><circle class="cls-6" cx="597.5" cy="119.5" r="5"/><circle class="cls-6" cx="753.5" cy="18.5" r="5"/></g><g id="Layer_3" data-name="Layer 3"><rect class="cls-7" x="-0.5" y="152" width="781" height="97.5"/></g></svg>