<svg xmlns="http://www.w3.org/2000/svg" xmlns:xlink="http://www.w3.org/1999/xlink" viewBox="0 0 920 250"><defs><style>.cls-1,.cls-6{fill:none;}.cls-2{fill:#ef6a83;}.cls-3{fill:#10162f;}.cls-4{fill:#fff;}.cls-5{fill:url(#New_Pattern_Swatch_16);}.cls-6{stroke:#fff;stroke-miterlimit:10;}.cls-7{fill:url(#New_Pattern_Swatch_8);}</style><pattern id="New_Pattern_Swatch_16" data-name="New Pattern Swatch 16" width="24.85" height="24.85" patternTransform="translate(6 12)" patternUnits="userSpaceOnUse" viewBox="0 0 24.85 24.85"><rect class="cls-1" width="24.85" height="24.85"/><rect class="cls-2" width="24.85" height="24.85"/><circle class="cls-3" cx="12.43" cy="12.43" r="2.3"/></pattern><pattern id="New_Pattern_Swatch_8" data-name="New Pattern Swatch 8" width="5.36" height="5.36" patternUnits="userSpaceOnUse" viewBox="0 0 5.36 5.36"><rect class="cls-1" width="5.36" height="5.36"/><rect class="cls-4" width="5.36" height="5.36"/><circle class="cls-3" cx="2.68" cy="2.68" r="0.99"/></pattern></defs><g id="Layer_1" data-name="Layer 1"><rect class="cls-5" x="781" width="139" height="250"/></g><g id="Layer_2" data-name="Layer 2"><rect class="cls-3" y="98" width="781" height="153"/><path class="cls-6" d="M-4.5,197.5l39-51s28-40,58-5c25.59,29.86,71,114,71,114h68s33.68-51.64,42-67c13-24,27.89-24.89,43-6,12,15,19,26,29,39,14.18,18.44,50,28,70-3,21.69-33.61,41.6-64.77,56-86,9.11-13.44,33-47,64,11s55,82,55,82,35,38,75-10,58-79,115-79.5"/><line class="cls-6" x1="623.5" y1="136.5" x2="614.33" y2="147.44"/><line class="cls-6" x1="178.5" y1="124.5" x2="169.33" y2="135.44"/><line class="cls-6" x1="388.38" y1="205.55" x2="377.45" y2="196.38"/><line class="cls-6" x1="47.38" y1="226.55" x2="36.45" y2="217.38"/><line class="cls-6" x1="759.38" y1="225.55" x2="748.45" y2="216.38"/></g><g id="Layer_3" data-name="Layer 3"><rect class="cls-7" width="780.5" height="97.5"/></g></svg>